<?xml version="1.0" standalone="no"?>
<!DOCTYPE svg PUBLIC "-//W3C//DTD SVG 20010904//EN"
 "http://www.w3.org/TR/2001/REC-SVG-20010904/DTD/svg10.dtd">
<svg version="1.0" xmlns="http://www.w3.org/2000/svg"
 width="247.000000pt" height="252.000000pt" viewBox="0 0 247.000000 252.000000"
 preserveAspectRatio="xMidYMid meet">

<g transform="translate(0.000000,252.000000) scale(0.100000,-0.100000)"
fill="#000000" stroke="none">
<path d="M1110 2491 c21 -40 24 -151 6 -221 -27 -106 -70 -180 -240 -420 -178
-250 -246 -428 -246 -642 0 -143 29 -278 95 -442 7 -17 6 -17 -15 -6 -48 26
-122 116 -160 195 -45 93 -68 168 -84 274 l-12 75 -22 -53 c-49 -113 -65 -197
-65 -346 0 -111 5 -156 21 -217 49 -182 135 -335 257 -454 120 -119 236 -174
364 -174 168 0 261 75 261 209 0 80 -18 123 -108 261 -152 231 -222 397 -243
576 -25 211 38 402 186 562 37 40 70 72 75 72 4 0 -6 -42 -22 -92 -25 -77 -30
-110 -30 -193 0 -186 59 -300 272 -520 229 -237 276 -304 300 -422 13 -60 4
-146 -20 -208 l-12 -30 -22 60 c-53 145 -158 273 -274 334 -35 18 -65 31 -67
29 -2 -2 16 -34 40 -71 77 -120 108 -208 113 -320 4 -90 2 -101 -22 -152 -16
-31 -49 -74 -79 -101 l-52 -47 35 7 c93 18 178 41 245 66 329 123 515 376 515
702 0 179 -45 314 -174 521 -57 91 -86 158 -114 262 -21 78 -21 269 0 343 9
29 11 52 5 52 -5 0 -37 -15 -71 -32 -83 -45 -174 -137 -211 -216 l-30 -64 -6
139 c-8 171 -32 271 -100 412 -43 88 -63 116 -132 185 -87 86 -180 150 -157
107z m580 -1145 c12 -36 44 -102 72 -148 127 -206 149 -265 150 -393 0 -83
-28 -213 -50 -237 -4 -4 -8 23 -9 59 -3 83 -40 165 -115 254 -82 97 -119 156
-140 221 -32 106 -19 242 34 357 l21 46 8 -47 c4 -27 17 -77 29 -112z"/>
</g>
</svg>
