<svg width="800" height="600" xmlns="http://www.w3.org/2000/svg">

 <g>
  <title>Layer 1</title>
  <g stroke="null">
   <title stroke="null">categories</title>
   <path stroke="null" d="m329.98457,336.47889l8.74097,0a0.98457,1.0014 0 0 1 0.6951,0.29441a0.98457,1.0014 0 0 1 0.29143,0.70699l0,8.85039a0.98457,1.0014 0 0 1 -0.98457,1.0014l-8.74294,0a0.98457,1.0014 0 0 1 -0.69904,-0.29441l-0.01772,-0.02203a0.98457,1.0014 0 0 1 -0.2678,-0.68496l0,-8.85039a0.98457,1.0014 0 0 1 0.98457,-1.0014zm13.48658,13.52493l8.73703,0a0.99441,1.01142 0 0 1 0.98457,1.0014l0,8.84638a0.98457,1.0014 0 0 1 -0.98457,1.0014l-8.73703,0a0.98457,1.0014 0 0 1 -0.68723,-0.2864l-0.01772,-0.02203a0.97275,0.98938 0 0 1 -0.27174,-0.68896l0,-8.84638a0.98457,1.0014 0 0 1 0.28946,-0.71099l0.01969,-0.02003a0.98457,1.0014 0 0 1 0.67738,-0.27639l-0.00985,0.002zm-13.48658,0l8.74097,0a0.98457,1.0014 0 0 1 0.6951,0.29441a0.97275,0.98938 0 0 1 0.29143,0.70899l0,8.84638a0.98457,1.0014 0 0 1 -0.98457,1.0014l-8.74294,0a0.98457,1.0014 0 0 1 -0.69904,-0.29441l-0.01772,-0.02203a0.98457,1.0014 0 0 1 -0.2678,-0.68296l0,-8.84638a0.98457,1.0014 0 0 1 0.98457,-1.0014l0,-0.00401zm13.48658,-13.52493l8.73703,0a0.98457,1.0014 0 0 1 0.98457,1.0014l0,8.85039a0.98457,1.0014 0 0 1 -0.98457,1.0014l-8.73703,0a0.98457,1.0014 0 0 1 -0.98457,-1.0014l0,-8.85039a0.98457,1.0014 0 0 1 0.29734,-0.70699l0.01969,-0.01803a0.98457,1.0014 0 0 1 0.66754,-0.27639z"/>
  </g>
 </g>
</svg>