<?xml version="1.0" standalone="no"?>
<!DOCTYPE svg PUBLIC "-//W3C//DTD SVG 20010904//EN"
 "http://www.w3.org/TR/2001/REC-SVG-20010904/DTD/svg10.dtd">
<svg version="1.0" xmlns="http://www.w3.org/2000/svg"
 width="140.000000pt" height="252.000000pt" viewBox="0 0 140.000000 252.000000"
 preserveAspectRatio="xMidYMid meet">
<metadata>
Created by potrace 1.16, written by Peter Selinger 2001-2019
</metadata>
<g transform="translate(0.000000,252.000000) scale(0.100000,-0.100000)"
fill="#000000" stroke="none">
<path d="M508 2109 c11 -4 3 -9 -25 -13 -24 -4 -80 -26 -125 -49 -46 -23 -90
-41 -98 -42 -8 0 -14 -5 -13 -10 1 -6 -3 -16 -9 -22 -12 -15 -32 -17 -23 -3
13 21 -2 9 -45 -36 -25 -26 -39 -44 -32 -40 6 4 12 3 12 -2 0 -12 -25 -33 -32
-27 -3 3 -11 -2 -19 -12 -12 -14 -12 -15 0 -9 9 6 12 5 9 -5 -3 -8 -10 -13
-16 -12 -6 2 -9 -3 -6 -11 3 -8 0 -17 -7 -22 -8 -5 -10 -3 -4 6 5 9 4 11 -4 6
-6 -4 -9 -11 -6 -16 8 -13 -6 -41 -18 -33 -6 3 -7 1 -3 -5 4 -7 2 -20 -4 -29
-11 -17 -11 -17 -6 0 4 11 2 16 -5 12 -6 -4 -8 -14 -5 -22 7 -18 -3 -65 -13
-59 -4 3 -8 -49 -10 -116 -2 -102 0 -122 15 -139 22 -25 65 -24 96 1 14 10 27
18 29 16 2 -2 4 26 5 63 1 91 59 261 84 246 5 -3 7 0 4 8 -3 8 0 18 7 23 8 5
10 3 4 -6 -5 -9 -4 -11 4 -6 6 4 9 11 6 16 -6 10 62 90 77 90 5 0 6 -5 2 -12
-4 -7 7 -2 24 11 39 27 43 38 5 14 -15 -10 -24 -12 -19 -5 13 21 122 71 188
87 79 19 156 19 234 0 77 -18 115 -35 107 -48 -3 -6 -1 -7 5 -4 13 9 44 -2 37
-13 -3 -5 0 -12 6 -16 8 -4 9 -3 5 4 -4 7 -3 12 2 12 11 0 39 -31 34 -37 -2
-3 0 -8 4 -11 4 -4 4 -1 0 6 -13 22 10 12 38 -17 15 -15 26 -34 24 -42 -2 -7
4 -13 12 -14 8 0 14 -8 14 -18 -1 -9 3 -14 9 -10 6 4 8 0 4 -10 -4 -10 -2 -16
6 -14 7 1 23 -32 39 -78 23 -66 27 -98 28 -182 0 -117 -17 -221 -32 -188 -6
15 -7 13 -3 -8 7 -34 -3 -70 -16 -62 -5 3 -6 -2 -2 -11 4 -12 3 -15 -5 -10 -8
5 -10 1 -5 -10 5 -13 3 -15 -7 -9 -8 5 -11 4 -7 -3 9 -13 -2 -44 -13 -37 -5 3
-12 0 -16 -6 -5 -8 -3 -9 6 -4 8 5 11 3 8 -6 -3 -8 -11 -13 -17 -11 -7 1 -10
-2 -6 -8 8 -12 -13 -52 -24 -45 -5 2 -8 -3 -7 -12 0 -10 -4 -18 -11 -18 -6 0
-15 -4 -20 -9 -5 -5 -2 -6 6 -1 9 5 12 3 9 -6 -3 -8 -11 -13 -17 -11 -7 1 -10
-1 -7 -6 3 -5 -2 -18 -10 -28 -9 -10 -12 -12 -8 -4 4 9 3 12 -2 7 -5 -5 -9
-16 -9 -25 0 -9 -7 -17 -15 -17 -8 0 -15 -9 -15 -20 0 -11 -5 -19 -12 -18 -7
2 -10 -3 -7 -11 3 -7 -3 -19 -12 -27 -15 -12 -17 -12 -9 0 5 9 4 12 -3 7 -6
-4 -9 -12 -7 -19 3 -7 -7 -25 -21 -42 -14 -16 -22 -24 -18 -16 5 9 3 12 -5 7
-6 -4 -9 -12 -6 -17 6 -8 -50 -99 -61 -99 -3 0 -2 6 2 13 4 6 -2 3 -14 -7 -25
-21 -31 -36 -7 -16 8 7 15 8 15 2 0 -14 -26 -33 -41 -30 -7 2 -13 -4 -14 -12
0 -24 -102 -59 -170 -59 -61 0 -150 28 -150 47 0 6 -4 14 -9 19 -5 5 -6 3 -2
-5 15 -25 -11 -11 -48 27 -24 25 -35 44 -31 52 5 7 4 10 -2 6 -17 -11 -45 66
-49 133 -2 36 -8 64 -13 63 -5 -1 -15 4 -21 12 -17 21 -73 19 -101 -4 -20 -16
-22 -26 -21 -82 1 -35 7 -78 13 -96 6 -18 7 -38 3 -44 -4 -7 -3 -9 3 -6 6 4
15 -5 22 -19 14 -31 14 -37 -1 -28 -7 4 -8 3 -4 -5 4 -6 12 -8 18 -5 7 5 9 1
5 -9 -4 -10 -2 -16 6 -14 7 1 12 -6 12 -15 0 -10 9 -25 20 -35 19 -18 19 -18
1 5 -33 39 -12 24 34 -25 25 -26 34 -39 20 -28 l-25 20 19 -22 c10 -13 23 -20
27 -17 10 6 45 -16 48 -31 2 -5 5 -12 8 -15 4 -3 3 1 -1 7 -9 16 -4 16 28 2
14 -7 23 -16 20 -20 -3 -5 3 -6 12 -2 11 4 15 3 11 -4 -5 -7 1 -9 15 -6 14 3
18 1 11 -4 -6 -4 49 -8 124 -8 74 0 129 1 122 4 -7 2 9 12 35 23 26 10 52 15
58 12 7 -4 8 -2 4 4 -7 12 29 36 43 28 5 -3 14 1 21 9 7 8 9 15 4 15 -4 0 9
18 31 39 21 22 43 39 49 38 6 -1 10 5 9 13 -1 8 7 26 18 40 11 14 18 19 14 13
-9 -18 0 -16 16 4 10 11 10 14 1 9 -20 -12 -13 7 14 39 15 17 23 24 19 16 -5
-9 -4 -12 3 -7 6 4 9 13 6 20 -3 7 3 19 12 27 15 12 17 12 9 0 -5 -9 -4 -12 3
-7 6 4 9 13 6 20 -3 8 0 17 7 22 8 4 10 3 5 -4 -11 -18 0 -14 15 5 12 14 12
16 0 9 -9 -6 -12 -5 -9 5 3 8 11 13 17 11 7 -1 10 1 7 6 -3 5 2 18 10 28 9 10
13 13 9 6 -9 -17 0 -15 16 5 10 11 10 14 2 9 -19 -11 -16 9 4 25 14 12 16 12
8 0 -5 -9 -4 -12 3 -7 6 4 9 12 7 19 -3 7 5 23 16 37 11 14 17 18 13 10 -7
-13 -5 -13 9 -1 18 15 23 26 7 16 -17 -10 -11 9 11 35 11 14 17 19 13 11 -5
-9 -3 -12 5 -7 6 4 9 11 6 16 -6 9 21 70 31 70 2 0 -1 -10 -7 -22 -9 -18 -9
-21 1 -12 6 7 13 25 15 40 2 16 15 61 29 100 67 187 58 424 -22 581 -25 48
-27 57 -10 47 7 -4 8 -3 4 5 -4 6 -12 8 -18 5 -7 -5 -9 -1 -5 9 4 10 2 16 -6
14 -7 -1 -12 6 -12 15 0 10 -7 23 -15 30 -12 11 -12 10 0 -7 15 -20 14 -20 -8
-1 -23 20 -31 42 -9 30 6 -4 -1 7 -17 24 -16 17 -32 29 -36 27 -10 -6 -51 25
-45 35 6 10 -35 41 -46 34 -5 -2 -36 9 -69 26 -87 44 -226 71 -349 68 -55 -2
-92 -6 -83 -9z"/>
<path d="M523 1897 c7 -5 3 -7 -11 -4 -12 3 -20 2 -17 -2 2 -5 -7 -13 -21 -20
-31 -14 -37 -14 -28 1 4 7 3 8 -5 4 -6 -4 -8 -12 -5 -18 5 -7 1 -9 -9 -5 -10
4 -16 2 -14 -6 1 -7 -5 -12 -14 -12 -20 0 -51 -24 -44 -35 2 -4 -12 -22 -33
-41 -23 -22 -29 -25 -17 -9 l20 25 -28 -24 c-27 -24 -36 -38 -17 -26 17 10 11
-9 -11 -35 -11 -14 -17 -18 -13 -10 4 9 3 12 -2 7 -5 -5 -9 -14 -9 -20 -1 -26
-28 -89 -34 -79 -4 6 -7 -6 -8 -26 0 -20 -5 -67 -10 -104 -5 -37 -6 -65 -1
-62 7 5 12 -10 9 -29 0 -4 2 -6 6 -5 5 1 19 -1 33 -5 14 -3 38 -8 53 -12 22
-4 28 -11 25 -28 -2 -17 -11 -23 -43 -27 -22 -3 -46 -9 -52 -13 -7 -5 -13 -6
-13 -3 0 3 12 12 28 20 15 8 22 15 16 16 -14 0 -49 -26 -50 -39 -1 -6 -2 -16
-3 -22 0 -5 -5 -8 -10 -5 -16 10 6 -65 26 -86 16 -17 26 -19 83 -14 83 7 105
11 105 18 0 11 37 47 47 45 6 -1 12 7 13 18 2 11 7 48 12 82 5 34 6 60 2 58
-4 -3 -9 3 -12 13 -2 9 -8 26 -13 36 -6 15 -4 17 7 11 12 -7 12 -6 1 6 -7 8
-18 14 -25 14 -7 0 -12 6 -12 14 0 8 -9 15 -20 16 -11 1 -28 6 -37 11 -15 8
-15 13 6 64 12 31 28 54 35 52 7 -1 9 2 6 9 -11 17 64 88 120 115 36 17 68 24
112 24 64 0 147 -25 137 -41 -3 -5 1 -6 9 -3 19 7 111 -92 103 -112 -4 -10 -2
-13 6 -8 8 5 9 2 5 -10 -4 -9 -3 -14 2 -11 11 6 17 -11 26 -75 4 -25 9 -53 12
-64 4 -13 1 -16 -8 -11 -11 6 -12 5 -2 -5 7 -8 18 -15 25 -17 58 -13 98 -20
93 -15 -3 3 4 16 16 28 19 21 21 32 17 97 -3 50 -13 91 -31 131 -31 67 -32 70
-14 60 8 -5 8 -2 -2 9 -15 19 -26 23 -15 5 5 -7 3 -8 -5 -4 -7 5 -10 14 -7 21
3 8 -2 19 -10 25 -8 7 -14 9 -14 4 0 -4 -13 5 -30 21 -16 15 -27 31 -25 35 6
10 -20 32 -28 24 -9 -9 -47 15 -44 28 1 7 -9 13 -23 14 -14 0 -51 9 -82 18
-41 12 -84 16 -152 14 -54 -2 -89 -7 -83 -11z"/>
</g>
</svg>
